<svg width="322" height="12" viewBox="0 0 322 12" fill="none" xmlns="http://www.w3.org/2000/svg">
<g clip-path="url(#clip0_601_1301)">
<path d="M130 12C133.314 12 136 9.31371 136 6C136 2.68629 133.314 0 130 0C126.686 0 124 2.68629 124 6C124 9.31371 126.686 12 130 12Z" fill="#C9AB3F"/>
<mask id="mask0_601_1301" style="mask-type:alpha" maskUnits="userSpaceOnUse" x="124" y="0" width="12" height="12">
<path d="M130 12C133.314 12 136 9.31371 136 6C136 2.68629 133.314 0 130 0C126.686 0 124 2.68629 124 6C124 9.31371 126.686 12 130 12Z" fill="#EA7754"/>
</mask>
<g mask="url(#mask0_601_1301)">
<path d="M131.874 -0.504639L123.536 7.83315" stroke="white" stroke-miterlimit="10"/>
<path d="M136.448 4.10449L128.108 12.321" stroke="white" stroke-miterlimit="10"/>
<path d="M134.558 1.21484L124.986 10.7851" stroke="white" stroke-miterlimit="10"/>
</g>
</g>
<g clip-path="url(#clip1_601_1301)">
<path d="M68 12C71.3137 12 74 9.31371 74 6C74 2.68629 71.3137 0 68 0C64.6863 0 62 2.68629 62 6C62 9.31371 64.6863 12 68 12Z" fill="#EA7754"/>
<mask id="mask1_601_1301" style="mask-type:alpha" maskUnits="userSpaceOnUse" x="62" y="0" width="12" height="12">
<path d="M68 12C71.3137 12 74 9.31371 74 6C74 2.68629 71.3137 0 68 0C64.6863 0 62 2.68629 62 6C62 9.31371 64.6863 12 68 12Z" fill="#EA7754"/>
</mask>
<g mask="url(#mask1_601_1301)">
<path d="M69.8742 -0.504639L61.5364 7.83315" stroke="white" stroke-miterlimit="10"/>
<path d="M74.4479 4.10449L66.1082 12.321" stroke="white" stroke-miterlimit="10"/>
<path d="M72.5583 1.21484L62.9861 10.7851" stroke="white" stroke-miterlimit="10"/>
</g>
</g>
<g clip-path="url(#clip2_601_1301)">
<path d="M6 12C9.31371 12 12 9.31371 12 6C12 2.68629 9.31371 0 6 0C2.68629 0 0 2.68629 0 6C0 9.31371 2.68629 12 6 12Z" fill="#0C77C4"/>
<mask id="mask2_601_1301" style="mask-type:alpha" maskUnits="userSpaceOnUse" x="0" y="0" width="12" height="12">
<path d="M6 12C9.31371 12 12 9.31371 12 6C12 2.68629 9.31371 0 6 0C2.68629 0 0 2.68629 0 6C0 9.31371 2.68629 12 6 12Z" fill="#EA7754"/>
</mask>
<g mask="url(#mask2_601_1301)">
<path d="M7.87417 -0.504639L-0.463623 7.83315" stroke="white" stroke-miterlimit="10"/>
<path d="M12.4479 4.10449L4.10815 12.321" stroke="white" stroke-miterlimit="10"/>
<path d="M10.5583 1.21484L0.986084 10.7851" stroke="white" stroke-miterlimit="10"/>
</g>
</g>
<g clip-path="url(#clip3_601_1301)">
<path d="M316 12C319.314 12 322 9.31371 322 6C322 2.68629 319.314 0 316 0C312.686 0 310 2.68629 310 6C310 9.31371 312.686 12 316 12Z" fill="#C9AB3F"/>
<mask id="mask3_601_1301" style="mask-type:alpha" maskUnits="userSpaceOnUse" x="310" y="0" width="12" height="12">
<path d="M316 12C319.314 12 322 9.31371 322 6C322 2.68629 319.314 0 316 0C312.686 0 310 2.68629 310 6C310 9.31371 312.686 12 316 12Z" fill="#EA7754"/>
</mask>
<g mask="url(#mask3_601_1301)">
<path d="M317.874 -0.504639L309.536 7.83315" stroke="white" stroke-miterlimit="10"/>
<path d="M322.448 4.10449L314.108 12.321" stroke="white" stroke-miterlimit="10"/>
<path d="M320.558 1.21484L310.986 10.7851" stroke="white" stroke-miterlimit="10"/>
</g>
</g>
<g clip-path="url(#clip4_601_1301)">
<path d="M254 12C257.314 12 260 9.31371 260 6C260 2.68629 257.314 0 254 0C250.686 0 248 2.68629 248 6C248 9.31371 250.686 12 254 12Z" fill="#EA7754"/>
<mask id="mask4_601_1301" style="mask-type:alpha" maskUnits="userSpaceOnUse" x="248" y="0" width="12" height="12">
<path d="M254 12C257.314 12 260 9.31371 260 6C260 2.68629 257.314 0 254 0C250.686 0 248 2.68629 248 6C248 9.31371 250.686 12 254 12Z" fill="#EA7754"/>
</mask>
<g mask="url(#mask4_601_1301)">
<path d="M255.874 -0.504639L247.536 7.83315" stroke="white" stroke-miterlimit="10"/>
<path d="M260.448 4.10449L252.108 12.321" stroke="white" stroke-miterlimit="10"/>
<path d="M258.558 1.21484L248.986 10.7851" stroke="white" stroke-miterlimit="10"/>
</g>
</g>
<g clip-path="url(#clip5_601_1301)">
<path d="M192 12C195.314 12 198 9.31371 198 6C198 2.68629 195.314 0 192 0C188.686 0 186 2.68629 186 6C186 9.31371 188.686 12 192 12Z" fill="#0C77C4"/>
<mask id="mask5_601_1301" style="mask-type:alpha" maskUnits="userSpaceOnUse" x="186" y="0" width="12" height="12">
<path d="M192 12C195.314 12 198 9.31371 198 6C198 2.68629 195.314 0 192 0C188.686 0 186 2.68629 186 6C186 9.31371 188.686 12 192 12Z" fill="#EA7754"/>
</mask>
<g mask="url(#mask5_601_1301)">
<path d="M193.874 -0.504639L185.536 7.83315" stroke="white" stroke-miterlimit="10"/>
<path d="M198.448 4.10449L190.108 12.321" stroke="white" stroke-miterlimit="10"/>
<path d="M196.558 1.21484L186.986 10.7851" stroke="white" stroke-miterlimit="10"/>
</g>
</g>
<defs>
<clipPath id="clip0_601_1301">
<rect width="12" height="12" fill="white" transform="translate(124)"/>
</clipPath>
<clipPath id="clip1_601_1301">
<rect width="12" height="12" fill="white" transform="translate(62)"/>
</clipPath>
<clipPath id="clip2_601_1301">
<rect width="12" height="12" fill="white"/>
</clipPath>
<clipPath id="clip3_601_1301">
<rect width="12" height="12" fill="white" transform="translate(310)"/>
</clipPath>
<clipPath id="clip4_601_1301">
<rect width="12" height="12" fill="white" transform="translate(248)"/>
</clipPath>
<clipPath id="clip5_601_1301">
<rect width="12" height="12" fill="white" transform="translate(186)"/>
</clipPath>
</defs>
</svg>
