<svg width="36" height="36" viewBox="0 0 36 36" fill="none" xmlns="http://www.w3.org/2000/svg">
<path d="M8.50652 25.9496H11.8417V17.8498L7.07715 14.2764V24.5202C7.07715 25.3111 7.71798 25.9496 8.50652 25.9496Z" fill="#469CCC"/>
<path d="M23.2767 25.9496H26.6119C27.4029 25.9496 28.0413 25.3088 28.0413 24.5202V14.2764L23.2767 17.8498" fill="#469CCC"/>
<path d="M23.2767 11.6561V17.85L28.0413 14.2766V12.3708C28.0413 10.6031 26.0235 9.5954 24.6108 10.6555" fill="#0C77C4"/>
<path d="M11.8417 17.8497V11.6558L17.5592 15.9439L23.2767 11.6558V17.8497L17.5592 22.1378" fill="#0C77C4"/>
<path d="M7.07715 12.3708V14.2766L11.8417 17.85V11.6561L10.5076 10.6555C9.09257 9.5954 7.07715 10.6031 7.07715 12.3708Z" fill="#0C77C4"/>
</svg>
