<svg width="12" height="12" viewBox="0 0 12 12" fill="none" xmlns="http://www.w3.org/2000/svg">
<g clip-path="url(#clip0_812_3495)">
<path d="M6 12C9.31371 12 12 9.31371 12 6C12 2.68629 9.31371 0 6 0C2.68629 0 0 2.68629 0 6C0 9.31371 2.68629 12 6 12Z" fill="#469CCC"/>
<mask id="mask0_812_3495" style="mask-type:alpha" maskUnits="userSpaceOnUse" x="0" y="0" width="12" height="12">
<path d="M6 12C9.31371 12 12 9.31371 12 6C12 2.68629 9.31371 0 6 0C2.68629 0 0 2.68629 0 6C0 9.31371 2.68629 12 6 12Z" fill="#EA7754"/>
</mask>
<g mask="url(#mask0_812_3495)">
<path d="M7.87417 -0.504883L-0.463623 7.83291" stroke="white" stroke-miterlimit="10"/>
<path d="M12.4479 4.104L4.10815 12.3205" stroke="white" stroke-miterlimit="10"/>
<path d="M10.5583 1.21484L0.986084 10.7851" stroke="white" stroke-miterlimit="10"/>
</g>
</g>
<defs>
<clipPath id="clip0_812_3495">
<rect width="12" height="12" fill="white"/>
</clipPath>
</defs>
</svg>
